<svg width="426" height="13" viewBox="0 0 426 13" fill="none" xmlns="http://www.w3.org/2000/svg">
<path d="M1 6.7168C6.88889 13.3835 12.7778 13.3835 18.6667 6.7168C24.5556 0.0501304 30.4444 0.0501304 36.3333 6.7168C42.2222 13.3835 48.1111 13.3835 54 6.7168C59.8889 0.0501304 65.7778 0.0501304 71.6667 6.7168C77.5556 13.3835 83.4444 13.3835 89.3333 6.7168C95.2222 0.0501304 101.111 0.0501304 107 6.7168C112.889 13.3835 118.778 13.3835 124.667 6.7168C130.556 0.0501304 136.444 0.0501304 142.333 6.7168C148.222 13.3835 154.111 13.3835 160 6.7168C165.889 0.0501304 171.778 0.0501304 177.667 6.7168C183.556 13.3835 189.444 13.3835 195.333 6.7168C201.222 0.0501304 207.111 0.0501304 213 6.7168C218.889 13.3835 224.778 13.3835 230.667 6.7168C236.556 0.0501304 242.444 0.0501304 248.333 6.7168C254.222 13.3835 260.111 13.3835 266 6.7168C271.889 0.0501304 277.778 0.0501304 283.667 6.7168C289.556 13.3835 295.444 13.3835 301.333 6.7168C307.222 0.0501304 313.111 0.0501304 319 6.7168C324.889 13.3835 330.778 13.3835 336.667 6.7168C342.556 0.0501304 348.444 0.0501304 354.333 6.7168C360.222 13.3835 366.111 13.3835 372 6.7168C377.889 0.0501304 383.778 0.0501304 389.667 6.7168C395.556 13.3835 401.444 13.3835 407.333 6.7168C413.222 0.0501304 419.111 0.0501304 425 6.7168" stroke="#0D1B1E" stroke-width="2"/>
</svg>
