<svg width="100" height="64" viewBox="0 0 100 64" fill="none" xmlns="http://www.w3.org/2000/svg">
<g clip-path="url(#clip0_415_1319)">
<path d="M14.7519 34.1405H17.4418C18.4155 34.1405 19.1579 34.4205 19.7422 34.9804C20.3142 35.5403 20.5942 36.2462 20.5942 37.1469C20.5942 38.0476 20.3142 38.717 19.73 39.2647C19.1336 39.8246 18.3911 40.0923 17.4539 40.0923H14.7641V34.1284L14.7519 34.1405ZM21.0445 31.5967C20.0708 31.049 18.9632 30.7812 17.7461 30.7812H11.2344V55.7691H14.7519V43.4882H17.7461C18.9632 43.4882 20.0708 43.2204 21.0445 42.6849C22.0304 42.1493 22.7972 41.3825 23.3571 40.421C23.9048 39.4594 24.1847 38.364 24.1847 37.1469C24.1847 35.9297 23.9048 34.8221 23.3571 33.8728C22.8094 32.9112 22.0304 32.1444 21.0567 31.5967" fill="#FE423C"/>
<path d="M30.1121 29.6254H33.155C34.1287 29.6254 34.8711 29.8689 35.431 30.3679C35.9665 30.8548 36.2221 31.5364 36.2221 32.437C36.2221 33.2403 35.9544 33.8611 35.4067 34.3601C34.8346 34.8713 34.1043 35.1269 33.155 35.1269H30.1121V29.6254ZM38.7173 52.4103C38.5104 52.7754 38.3643 52.9215 38.3034 52.9823C38.2669 52.8971 38.2182 52.7511 38.1696 52.4955L37.3419 40.032V39.9224C37.1228 39.0826 36.782 38.3888 36.3317 37.8533C37.2202 37.476 37.9748 36.9039 38.5712 36.1493C39.411 35.0782 39.837 33.8733 39.837 32.5466C39.837 31.3294 39.5571 30.234 39.0094 29.2846C38.4617 28.3353 37.6705 27.5928 36.6847 27.0573C35.7109 26.5339 34.5912 26.2783 33.3497 26.2783H26.5459V55.7939H30.1243V38.5105H31.877C32.303 38.5105 32.6681 38.6688 32.9967 38.9852C33.3497 39.326 33.5931 39.8007 33.7514 40.3849L34.7859 53.4935V53.6031C35.3458 55.8182 36.7577 56.2929 37.8409 56.2929C38.4738 56.2929 39.0824 56.1225 39.6301 55.8061C40.1657 55.4896 40.6282 55.0393 41.0055 54.4672L41.2854 54.0412L39.2041 51.5826L38.7294 52.4346L38.7173 52.4103Z" fill="#FE423C"/>
<path d="M50.9248 52.8971C49.9511 52.8971 49.1234 52.6171 48.3931 52.0572C47.6507 51.473 47.0665 50.6332 46.6526 49.5499C46.2753 48.418 45.9954 34.6035 45.9954 31.9988C45.9954 30.4652 46.2145 29.1142 46.6405 27.9823C47.0543 26.899 47.6385 26.047 48.381 25.4628C49.0991 24.8907 49.9267 24.623 50.9126 24.623C51.8985 24.623 52.7261 24.9029 53.4564 25.475C54.1989 26.0592 54.7831 26.899 55.1969 27.9823C55.6229 29.1142 55.842 30.4652 55.842 31.9988C55.842 34.6035 55.5742 48.4545 55.1969 49.5743C54.7953 50.6575 54.2111 51.4974 53.4686 52.0694C52.7383 52.6293 51.8985 52.9092 50.9248 52.9092M55.4525 22.6147C54.1502 21.714 52.6288 21.2637 50.9248 21.2637C49.2208 21.2637 47.6994 21.714 46.4092 22.6147C45.1312 23.5154 44.1332 24.7934 43.4394 26.4122C42.77 28.0066 42.417 29.881 42.417 31.9867C42.417 32.1571 42.6482 49.2457 43.4394 51.0957C44.1332 52.7267 45.1312 54.0047 46.4092 54.8932C47.6994 55.7939 49.2208 56.2442 50.9248 56.2442C52.6288 56.2442 54.1502 55.7817 55.4525 54.8932C56.7427 54.0047 57.7407 52.7145 58.4345 51.0835C59.2135 49.2335 59.4569 32.1205 59.4569 31.9501C59.4569 29.8445 59.1161 27.9701 58.4345 26.3878C57.7407 24.769 56.7427 23.491 55.4525 22.6025" fill="#FE423C"/>
<path d="M69.1946 48.9044L65.1902 26.2656H61.4414L67.162 55.769H71.2028L76.899 26.2656H73.1746L69.1946 48.9044Z" fill="#FE423C"/>
<path d="M81.9008 42.3075H88.2908V39.0578H81.9008V34.1405H89.3618V30.7812H78.3711V55.7691H89.6296V52.4098H81.9008V42.3075Z" fill="#FE423C"/>
<path d="M92.5392 61.1368H7.4491C5.67208 56.7794 -2.58011 34.4937 7.49778 18.89C14.4841 8.05745 28.7855 2.56816 50.0002 2.56816C71.2149 2.56816 85.5163 8.05745 92.5026 18.89C102.568 34.4937 94.3284 56.7794 92.5513 61.1368M94.6813 17.5024C87.1838 5.89094 72.1521 0 50.0002 0C27.8483 0 12.8167 5.89094 5.33128 17.5024C0.389701 25.1826 -1.15606 35.4917 0.864384 47.3223C2.38581 56.1831 5.30693 62.6947 5.42865 62.9625L5.76945 63.7171H94.231L94.5718 62.9625C94.6935 62.6947 97.6146 56.1831 99.136 47.3223C101.156 35.4917 99.6229 25.1826 94.6692 17.5146" fill="#FE423C"/>
</g>
<defs>
<clipPath id="clip0_415_1319">
<rect width="100" height="63.7171" fill="white"/>
</clipPath>
</defs>
</svg>
